ModelForces
version=1
nRows=4
nColumns=158
inDegrees=no

This file contains the forces exerted on a model during a simulation.

A force is a generalized force, meaning that it can be either a force (N) or a torque (Nm).

Units are S.I. units (second, meters, Newtons, ...)
Angles are in degrees.

endheader
time	glut_med1_r	glut_med2_r	glut_med3_r	glut_min1_r	glut_min2_r	glut_min3_r	semimem_r	semiten_r	bifemlh_r	bifemsh_r	sar_r	add_long_r	add_brev_r	add_mag1_r	add_mag2_r	add_mag3_r	tfl_r	pect_r	grac_r	glut_max1_r	glut_max2_r	glut_max3_r	iliacus_r	psoas_r	quad_fem_r	gem_r	peri_r	rect_fem_r	vas_med_r	vas_int_r	vas_lat_r	med_gas_r	lat_gas_r	soleus_r	tib_post_r	flex_dig_r	flex_hal_r	tib_ant_r	per_brev_r	per_long_r	per_tert_r	ext_dig_r	ext_hal_r	glut_med1_l	glut_med2_l	glut_med3_l	glut_min1_l	glut_min2_l	glut_min3_l	semimem_l	semiten_l	bifemlh_l	bifemsh_l	sar_l	add_long_l	add_brev_l	add_mag1_l	add_mag2_l	add_mag3_l	tfl_l	pect_l	grac_l	glut_max1_l	glut_max2_l	glut_max3_l	iliacus_l	psoas_l	quad_fem_l	gem_l	peri_l	rect_fem_l	vas_med_l	vas_int_l	vas_lat_l	med_gas_l	lat_gas_l	soleus_l	tib_post_l	flex_dig_l	flex_hal_l	tib_ant_l	per_brev_l	per_long_l	per_tert_l	ext_dig_l	ext_hal_l	ercspn_r	ercspn_l	intobl_r	intobl_l	extobl_r	extobl_l	femur_lat_meniscii_r.femur_lat_r.force.X	femur_lat_meniscii_r.femur_lat_r.force.Y	femur_lat_meniscii_r.femur_lat_r.force.Z	femur_lat_meniscii_r.femur_lat_r.torque.X	femur_lat_meniscii_r.femur_lat_r.torque.Y	femur_lat_meniscii_r.femur_lat_r.torque.Z	femur_lat_meniscii_r.meniscus_lat_r.force.X	femur_lat_meniscii_r.meniscus_lat_r.force.Y	femur_lat_meniscii_r.meniscus_lat_r.force.Z	femur_lat_meniscii_r.meniscus_lat_r.torque.X	femur_lat_meniscii_r.meniscus_lat_r.torque.Y	femur_lat_meniscii_r.meniscus_lat_r.torque.Z	femur_med_meniscii_r.femur_med_r.force.X	femur_med_meniscii_r.femur_med_r.force.Y	femur_med_meniscii_r.femur_med_r.force.Z	femur_med_meniscii_r.femur_med_r.torque.X	femur_med_meniscii_r.femur_med_r.torque.Y	femur_med_meniscii_r.femur_med_r.torque.Z	femur_med_meniscii_r.meniscus_med_r.force.X	femur_med_meniscii_r.meniscus_med_r.force.Y	femur_med_meniscii_r.meniscus_med_r.force.Z	femur_med_meniscii_r.meniscus_med_r.torque.X	femur_med_meniscii_r.meniscus_med_r.torque.Y	femur_med_meniscii_r.meniscus_med_r.torque.Z	femur_med_tibia_r.tibia_upper_r.force.X	femur_med_tibia_r.tibia_upper_r.force.Y	femur_med_tibia_r.tibia_upper_r.force.Z	femur_med_tibia_r.tibia_upper_r.torque.X	femur_med_tibia_r.tibia_upper_r.torque.Y	femur_med_tibia_r.tibia_upper_r.torque.Z	femur_med_tibia_r.femur_med_r.force.X	femur_med_tibia_r.femur_med_r.force.Y	femur_med_tibia_r.femur_med_r.force.Z	femur_med_tibia_r.femur_med_r.torque.X	femur_med_tibia_r.femur_med_r.torque.Y	femur_med_tibia_r.femur_med_r.torque.Z	femur_lat_tibia_r.tibia_upper_r.force.X	femur_lat_tibia_r.tibia_upper_r.force.Y	femur_lat_tibia_r.tibia_upper_r.force.Z	femur_lat_tibia_r.tibia_upper_r.torque.X	femur_lat_tibia_r.tibia_upper_r.torque.Y	femur_lat_tibia_r.tibia_upper_r.torque.Z	femur_lat_tibia_r.femur_lat_r.force.X	femur_lat_tibia_r.femur_lat_r.force.Y	femur_lat_tibia_r.femur_lat_r.force.Z	femur_lat_tibia_r.femur_lat_r.torque.X	femur_lat_tibia_r.femur_lat_r.torque.Y	femur_lat_tibia_r.femur_lat_r.torque.Z	aACL_R	pACL_R	aPCL_R	pPCL_R	aMCL_R	mMCL_R	pMCL_R	aLCL_R	mLCL_R	pLCL_R	aPCL_L	pPCL_L	aMCL_L	aLCL_L	ground_prescribedForce_-80_fx	ground_prescribedForce_-80_fy	ground_prescribedForce_-80_fz
      0.21173463	      9.65373557	      7.10787360	      7.62989500	      3.30379948	      3.87898496	      4.08124718	      0.00000000	      4.40348576	      5.18031095	      6.96399442	      1.87952369	      7.06088828	      5.13511723	      3.65644761	      3.09036031	      5.13915329	      3.55935140	      2.78566324	      1.79566398	      4.58722963	      6.97559072	      5.22825631	     25.27416034	     15.93979109	      4.52776940	      3.28211681	      5.64433550	    131.12042405	     45.20133971	     31.01006243	     63.44571916	      0.00000000	      0.00000000	     14.36339639	     12.93353945	      2.58973742	      3.94046473	     15.80045435	      5.12296766	     12.45581863	      6.70305694	      9.79734407	      2.84637138	      9.65373557	      7.10787360	      7.62989500	      3.30379948	      3.87898496	      4.08124718	     11.73924212	      5.21075884	     10.20034285	      9.01046462	      1.88642816	      7.06088828	      5.13511723	      3.65644761	      3.09036031	      5.13915329	      4.81050658	      2.78566324	      1.94213987	      4.58722963	      6.97559072	      5.22825631	     25.27416034	     15.93979109	      4.52776940	      3.28211681	      5.64433550	     14.10400690	      8.31809870	      9.58329709	     10.29512213	     20.00015114	      9.29059297	     42.91430823	     47.18752916	      3.99985223	      4.07926438	     11.05567963	      5.84862818	     15.79472902	      2.46568452	      7.27633681	      2.28604258	     31.08679045	     31.08679045	     11.40380981	     11.40380981	     28.96665958	     28.96665958	    231.90897200	     49.37491121	     42.10507069	    -18.28009467	      5.77472863	     94.48711253	   -231.90897200	    -49.37491121	    -42.10507069	      1.76364383	     -8.12442865	     -0.76136163	     95.67760053	    -39.63419334	    -14.43077555	      5.08695512	     -1.86265711	     38.71585632	    -95.67760053	     39.63419334	     14.43077555	      0.45722089	      1.76912021	     -1.70047104	   -501.15096890	    -51.85419071	     73.72885332	     -1.17632113	      8.22626813	     -2.10090261	    501.15096890	     51.85419071	    -73.72885332	     30.80752339	     -8.76738640	    203.13002218	    -44.09369039	    -16.91321826	    -13.23640843	      0.60940054	     -1.67558450	      0.11016102	     44.09369039	     16.91321826	     13.23640843	     -5.79447317	      1.08476348	     17.91751418	     67.04777026	     21.63924533	    623.35634798	    265.40388862	     13.53003954	      1.94041248	      0.00000000	      0.00000000	      0.00000000	      0.00000000	      0.00000000	      0.00000000	      0.00000001	      0.00000000	     19.10100000	   -108.32880000	      0.00000000
      0.21462344	      9.57535747	      7.05443269	      7.57182110	      3.28000281	      3.85306817	      4.04818827	      0.00000000	      4.36244483	      5.12798353	      6.89927754	      1.86408512	      7.00717624	      5.09847229	      3.62911294	      3.06670644	      5.09626055	      3.53297864	      2.76546123	      1.78022527	      4.55267330	      6.92290334	      5.18809385	     25.17640038	     15.82863132	      4.49444074	      3.26609615	      5.58923592	    131.07479976	     45.07956918	     30.84482491	     63.25591429	      0.00000000	      0.00000000	     14.25096202	     12.91911358	      2.48556672	      3.77528952	     15.69556769	      5.04357555	     12.29585481	      6.70405167	      9.69199926	      2.84595830	      9.57535747	      7.05443269	      7.57182110	      3.28000281	      3.85306817	      4.04818827	     11.62993883	      5.16880718	     10.10775786	      8.94407814	      1.87290373	      7.00717624	      5.09847229	      3.62911294	      3.06670644	      5.09626055	      4.78392359	      2.76546123	      1.92797083	      4.55267330	      6.92290334	      5.18809385	     25.17640038	     15.82863132	      4.49444074	      3.26609615	      5.58923592	     13.97732064	      8.25385291	      9.50795316	     10.21439172	     19.79637003	      9.19579142	     42.49429983	     47.01127331	      3.95479074	      4.03708799	     10.95918212	      5.79356069	     15.67672238	      2.44852956	      7.20254558	      2.26312104	     30.86236839	     30.86236839	     11.31447509	     11.31447509	     28.88614128	     28.88614128	    232.05229703	     49.93781799	     42.23206783	    -18.34528381	      5.77963126	     94.54262625	   -232.05229703	    -49.93781799	    -42.23206783	      1.78088330	     -8.13448295	     -0.74178846	     96.03998149	    -39.54453164	    -14.39931564	      5.07643398	     -1.86984436	     38.86094063	    -96.03998149	     39.54453164	     14.39931564	      0.45567795	      1.77325773	     -1.69782720	   -501.70629504	    -52.03157154	     73.16170240	     -1.17323684	      8.21329402	     -2.08963466	    501.70629504	     52.03157154	    -73.16170240	     30.58041087	     -8.77457665	    203.35012246	    -43.18858066	    -16.55930477	    -12.95886028	      0.59663944	     -1.64113048	      0.10786597	     43.18858066	     16.55930477	     12.95886028	     -5.67305935	      1.06241822	     17.55004826	     67.22376243	     21.66032956	    622.66106433	    264.61965736	     13.34246433	      1.74449672	      0.00000000	      0.00000000	      0.00000000	      0.00000000	      0.00000000	      0.00000000	      0.00000001	      0.00000000	     19.10100000	   -108.32880000	      0.00000000
      0.21780606	      9.49242178	      6.99787004	      7.51036009	      3.25480893	      3.82563591	      4.01320631	      0.00000000	      4.31797697	      5.07134123	      6.82976534	      1.84746948	      6.95033153	      5.05967435	      3.60018206	      3.04167550	      5.05087398	      3.50453316	      2.74407439	      1.76369236	      4.51610258	      6.86714485	      5.14559341	     25.07296491	     15.71104637	      4.45916069	      3.24915204	      5.53078893	    131.01746878	     44.93010704	     30.65862292	     63.03499803	      0.00000000	      0.00000000	     14.13508066	     12.91011153	      2.39287358	      3.60990102	     15.58326390	      4.95502521	     12.11781422	      6.70454612	      9.56636821	      2.83281532	      9.49242178	      6.99787004	      7.51036009	      3.25480893	      3.82563591	      4.01320631	     11.51413534	      5.12441547	     10.00970911	      8.87380597	      1.85858483	      6.95033153	      5.05967435	      3.60018206	      3.04167550	      5.05087398	      4.75579547	      2.74407439	      1.91297123	      4.51610258	      6.86714485	      5.14559341	     25.07296491	     15.71104637	      4.45916069	      3.24915204	      5.53078893	     13.84317683	      8.18587801	      9.42824151	     10.12898787	     19.57984482	      9.09506597	     42.04880804	     46.82462151	      3.90711575	      3.99249591	     10.85703788	      5.73521227	     15.55157738	      2.43038085	      7.12413027	      2.23877602	     30.62477289	     30.62477289	     11.21993935	     11.21993935	     28.80095367	     28.80095367	    232.47043275	     50.05857645	     42.10322118	    -18.29592325	      5.78742631	     94.71574290	   -232.47043275	    -50.05857645	    -42.10322118	      1.78318799	     -8.14180926	     -0.74241591	     96.49362341	    -39.68433228	    -14.54843552	      5.13395960	     -1.88044351	     39.04507453	    -96.49362341	     39.68433228	     14.54843552	      0.45684068	      1.78530785	     -1.70415421	   -502.31304915	    -52.24529474	     72.76894006	     -1.16905040	      8.20856066	     -2.07755090	    502.31304915	     52.24529474	    -72.76894006	     30.42186924	     -8.78548332	    203.59115163	    -42.35240987	    -16.23402717	    -12.70902255	      0.58498527	     -1.60958010	      0.10584719	     42.35240987	     16.23402717	     12.70902255	     -5.56364487	      1.04186363	     17.21055582	     67.45729009	     21.72646109	    621.83215315	    263.53195008	     13.04566105	      1.41798380	      0.00000000	      0.00000000	      0.00000000	      0.00000000	      0.00000000	      0.00000000	      0.00000001	      0.00000000	     19.10100000	   -108.32880000	      0.00000000
      0.22098868	      9.41291879	      6.94363428	      7.45143263	      3.23064413	      3.79933057	      3.97967153	      0.00000000	      4.27651259	      5.01816259	      6.77028665	      1.83385580	      6.89583013	      5.02245686	      3.57244184	      3.01767886	      5.00736642	      3.47713094	      2.72356263	      1.74907562	      4.48104038	      6.81368658	      5.10484930	     24.97381857	     15.59836599	      4.42532750	      3.23291713	      5.47461717	    130.97794358	     44.79147030	     30.49457282	     62.84109386	      0.00000000	      0.00000000	     13.95435662	     12.89619220	      2.32189113	      3.46065718	     15.49617977	      4.86423319	     11.93451024	      6.71359108	      9.43508559	      2.81353381	      9.41291879	      6.94363428	      7.45143263	      3.23064413	      3.79933057	      3.97967153	     11.40298253	      5.08186049	      9.91563988	      8.80641697	      1.84485017	      6.89583013	      5.02245686	      3.57244184	      3.01767886	      5.00736642	      4.72883223	      2.72356263	      1.89858582	      4.48104038	      6.81368658	      5.10484930	     24.97381857	     15.59836599	      4.42532750	      3.23291713	      5.47461717	     13.71449599	      8.12072267	      9.35184185	     10.04713880	     19.37137582	      8.99809284	     41.62069173	     46.64554446	      3.86141644	      3.94978180	     10.75908689	      5.67920042	     15.43133063	      2.41298694	      7.04863548	      2.21535173	     30.39688647	     30.39688647	     11.12930993	     11.12930993	     28.71930350	     28.71930350	    231.59457993	     50.40435439	     42.25073659	    -18.36476563	      5.76971282	     94.35505407	   -231.59457993	    -50.40435439	    -42.25073659	      1.79480347	     -8.12466202	     -0.71850618	     96.20175917	    -39.82782659	    -14.62871561	      5.16358352	     -1.87842107	     38.93055350	    -96.20175917	     39.82782659	     14.62871561	      0.45845151	      1.78663782	     -1.70888611	   -501.71172840	    -52.19208803	     72.56450100	     -1.16476826	      8.19797779	     -2.06600633	    501.71172840	     52.19208803	    -72.56450100	     30.33686501	     -8.77931940	    203.34406170	    -41.47250906	    -15.94916067	    -12.39959158	      0.57367161	     -1.57449582	      0.10600730	     41.47250906	     15.94916067	     12.39959158	     -5.43061478	      1.01963587	     16.85254885	     68.05828883	     22.24251961	    621.70489524	    264.23867368	     14.01145497	      2.39929858	      0.00000000	      0.00000000	      0.00000000	      0.00000000	      0.00000000	      0.00000000	      0.00000001	      0.00000000	     19.10100000	   -108.32880000	      0.00000000
